<svg version="1.1" id="Layer_1" xmlns="http://www.w3.org/2000/svg" x="0" y="0" viewBox="0 0 1024 1024" xml:space="preserve"><style>.st0{fill:#4e98df}.st8{display:inline;opacity:.9;fill:none;stroke:#226db4;stroke-width:60.0157;stroke-linecap:round;stroke-linejoin:round;stroke-miterlimit:10}</style><g opacity=".9"><path class="st0" d="M490 400.8h140c16.6 0 30-13.4 30-30v-140c0-16.6-13.4-30-30-30H490c-16.6 0-30 13.4-30 30v140c0 16.6 13.4 30 30 30zm30-140.1h80v80h-80v-80z"/><path class="st0" d="M994.1 0H450c-93.8 0-170 76.3-170 170v110.6H169.3C75.9 280.6-.1 356.6-.1 450v404.6c0 93.4 76 169.4 169.4 169.4H754c72.1 0 140-28.1 191-79.1s79.1-118.8 79.1-191V30c0-16.6-13.4-30-30-30zM169.3 340.6h110.6v180.2h-220V450c0-60.3 49.1-109.4 109.4-109.4zm.6 623.4h-.6C109 964 59.9 914.9 59.9 854.6V580.8H280v273.8c0 60.3-49.1 109.4-109.4 109.4h-.7zm794.2-210c0 115.8-94.2 210.1-210.1 210.1H299.8c25-29.5 40.2-67.7 40.2-109.4V170c0-60.7 49.4-110 110-110h514.1v694z"/><path class="st0" d="M490 580.8h323.5c16.6 0 30-13.4 30-30s-13.4-30-30-30H490c-16.6 0-30 13.4-30 30s13.4 30 30 30zM490 760.9h323.5c16.6 0 30-13.4 30-30s-13.4-30-30-30H490c-16.6 0-30 13.4-30 30s13.4 30 30 30z"/></g></svg>
